<svg xmlns="http://www.w3.org/2000/svg" viewBox="0 0 120 120">
  <defs>
    <linearGradient id="bg4" x1="0" y1="0" x2="1" y2="1">
      <stop offset="0%" stop-color="#0e2a1a"/>
      <stop offset="100%" stop-color="#081a10"/>
    </linearGradient>
  </defs>
  <rect width="120" height="120" fill="url(#bg4)" rx="12"/>
  <!-- trees -->
  <polygon points="20,78 28,40 36,78" fill="#1a5a2a"/>
  <polygon points="15,78 28,50 41,78" fill="#2a7a3a" opacity="0.7"/>
  <rect x="26" y="78" width="4" height="10" fill="#5a3a08"/>
  <polygon points="85,75 95,35 105,75" fill="#1a5a2a"/>
  <polygon points="80,75 95,45 110,75" fill="#2a7a3a" opacity="0.7"/>
  <rect x="93" y="75" width="4" height="10" fill="#5a3a08"/>
  <!-- water -->
  <ellipse cx="60" cy="95" rx="50" ry="15" fill="#1a4a6a" opacity="0.5"/>
  <!-- lodge -->
  <path d="M42 82 Q48 62 60 60 Q72 62 78 82 Z" fill="#6a5010"/>
  <path d="M45 82 Q50 65 60 63 Q70 65 75 82 Z" fill="#8B6914"/>
  <!-- sticks on lodge -->
  <line x1="52" y1="70" x2="55" y2="82" stroke="#5a3a08" stroke-width="1.5"/>
  <line x1="65" y1="68" x2="67" y2="82" stroke="#5a3a08" stroke-width="1.5"/>
  <line x1="58" y1="66" x2="56" y2="82" stroke="#5a3a08" stroke-width="1.5"/>
  <!-- entrance -->
  <ellipse cx="60" cy="82" rx="5" ry="4" fill="#2a1a08"/>
</svg>